<svg xmlns="http://www.w3.org/2000/svg" xmlns:xlink="http://www.w3.org/1999/xlink" version="1.1" id="Layer_1" x="0px" y="0px" width="100px" height="100px" viewBox="0 0 100 100" enable-background="new 0 0 100 100" xml:space="preserve">
<path d="M59.731,15.514c2.432-1.354,4.279-3.429,4.3-6.079h0.002c-0.022-2.652-1.87-4.727-4.302-6.081  c-2.466-1.375-5.703-2.162-9.262-2.167c-3.56,0.004-6.797,0.792-9.262,2.167c-2.433,1.354-4.28,3.429-4.304,6.081  c0.023,2.649,1.871,4.725,4.304,6.079c1.993,1.112,4.496,1.832,7.262,2.072v1.959h-2.354l4.251,7.365l-9.044-0.001  c-1.889,0.002-3.42,1.531-3.42,3.42l-0.001,4.508l-7.356-4.248v2.562c-8.321,0.453-14.932,7.321-14.932,15.754  c0,8.726,7.072,15.798,15.8,15.798h6.81c0.155,0.289,0.34,0.568,0.583,0.811l0.062,0.062l9.249,7.248  c0.14,0.133,0.292,0.242,0.447,0.348v1.902h-2.449l4.151,7.191c-3.478,0.033-6.641,0.814-9.059,2.16  c-2.434,1.355-4.281,3.432-4.302,6.082c0.021,2.648,1.868,4.725,4.302,6.08c2.466,1.373,5.703,2.16,9.262,2.166  c3.558-0.006,6.795-0.793,9.262-2.166c2.431-1.355,4.278-3.432,4.299-6.08c-0.021-2.65-1.868-4.727-4.299-6.082  c-2.42-1.346-5.583-2.127-9.061-2.16l4.153-7.191h-2.261v-2.053c0.08-0.062,0.165-0.115,0.24-0.186l9.272-7.266l0.062-0.062  c0.656-0.664,0.995-1.541,0.993-2.412c0.002-0.869-0.335-1.752-0.999-2.416l-0.069-0.07l-9.26-7.254  c-0.631-0.588-1.44-0.893-2.245-0.914l4.266-7.386H52.47v-2.068h7.146c1.888-0.002,3.418-1.531,3.421-3.42V30.33  c-0.005-1.889-1.533-3.418-3.423-3.418l-9.043-0.001l4.253-7.365H52.47v-1.959C55.234,17.346,57.737,16.626,59.731,15.514z   M61.033,90.508c0.021,1.074-0.833,2.375-2.767,3.459c-1.899,1.068-4.693,1.791-7.797,1.785c-3.103,0.006-5.897-0.717-7.798-1.785  c-1.935-1.084-2.789-2.385-2.767-3.459c-0.022-1.078,0.832-2.375,2.767-3.463c1.898-1.066,4.695-1.789,7.798-1.783  c3.104-0.006,5.897,0.717,7.797,1.783C60.202,88.133,61.054,89.43,61.033,90.508z M50.83,55.621l9.219,7.223  c0.056,0.074,0.082,0.158,0.084,0.252c-0.002,0.09-0.026,0.176-0.087,0.256l-9.214,7.219l-0.064,0.064  c-0.085,0.084-0.188,0.121-0.3,0.123c-0.114-0.002-0.215-0.041-0.296-0.121l-0.068-0.068l-9.21-7.215  c-0.062-0.076-0.089-0.164-0.091-0.258c0.002-0.098,0.028-0.18,0.085-0.252l9.224-7.225l0.061-0.062  c0.086-0.084,0.182-0.121,0.296-0.123c0.11,0.002,0.211,0.039,0.3,0.127L50.83,55.621z M41.322,42.987h7.147v2.068h-2.354  l4.264,7.386c-0.805,0.021-1.615,0.322-2.248,0.916l-9.252,7.248l-0.067,0.068c-0.309,0.305-0.537,0.658-0.704,1.031l-6.694-0.002  c-7.07-0.012-12.786-5.73-12.801-12.798c0.014-6.775,5.271-12.295,11.933-12.753v3.146l7.356-4.248L37.9,39.567  c0.006,1.889,1.533,3.416,3.42,3.418 M60.035,30.332v9.236c0,0.231-0.188,0.418-0.419,0.418H41.324  c-0.231,0-0.423-0.192-0.423-0.421V30.33c0-0.229,0.188-0.419,0.421-0.419h18.292C59.844,29.911,60.035,30.1,60.035,30.332z   M39.904,9.436c-0.021-1.077,0.833-2.375,2.767-3.462c1.901-1.069,4.695-1.79,7.799-1.785c3.104-0.004,5.897,0.716,7.798,1.785  c1.933,1.087,2.787,2.385,2.764,3.462h0.002c0.021,1.075-0.833,2.373-2.766,3.462c-1.9,1.067-4.693,1.79-7.798,1.786  c-3.104,0.004-5.897-0.719-7.799-1.786C40.737,11.808,39.883,10.51,39.904,9.436z"/>
</svg>